<svg width="32" height="32" viewBox="0 0 32 32" fill="none" xmlns="http://www.w3.org/2000/svg">
<path d="M6.69844 6.69844C7.14564 6.25124 7.75218 6 8.38461 6H23.6154C24.2478 6 24.8544 6.25124 25.3016 6.69844C25.7488 7.14564 26 7.75218 26 8.38462V17C26 17.5523 25.5523 18 25 18C24.4477 18 24 17.5523 24 17V8.38462C24 8.28261 23.9595 8.18478 23.8873 8.11265C23.8152 8.04052 23.7174 8 23.6154 8H8.38461C8.28261 8 8.18478 8.04052 8.11265 8.11265C8.04052 8.18478 8 8.28261 8 8.38462V23.6154C8 23.7174 8.04052 23.8152 8.11265 23.8873C8.18478 23.9595 8.28261 24 8.38461 24H15C15.5523 24 16 24.4477 16 25C16 25.5523 15.5523 26 15 26H8.38461C7.75218 26 7.14564 25.7488 6.69844 25.3016C6.25124 24.8544 6 24.2478 6 23.6154V8.38462C6 7.75218 6.25124 7.14564 6.69844 6.69844Z" fill="#E2E2E2"/>
<path fill-rule="evenodd" clip-rule="evenodd" d="M14 15.8284C14.4179 15.6807 14.8019 15.4407 15.1213 15.1213C15.6839 14.5587 16 13.7956 16 13C16 12.2044 15.6839 11.4413 15.1213 10.8787C14.5587 10.3161 13.7956 10 13 10C12.2044 10 11.4413 10.3161 10.8787 10.8787C10.3161 11.4413 10 12.2044 10 13C10 13.7956 10.3161 14.5587 10.8787 15.1213C11.1981 15.4407 11.5821 15.6807 12 15.8284V21C12 21.5523 12.4477 22 13 22C13.5523 22 14 21.5523 14 21V15.8284ZM13 14C12.7348 14 12.4804 13.8946 12.2929 13.7071C12.1054 13.5196 12 13.2652 12 13C12 12.7348 12.1054 12.4804 12.2929 12.2929C12.4804 12.1054 12.7348 12 13 12C13.2652 12 13.5196 12.1054 13.7071 12.2929C13.8946 12.4804 14 12.7348 14 13C14 13.2652 13.8946 13.5196 13.7071 13.7071C13.5196 13.8946 13.2652 14 13 14Z" fill="#E2E2E2"/>
<path fill-rule="evenodd" clip-rule="evenodd" d="M20 15.1716V11C20 10.4477 19.5523 10 19 10C18.4477 10 18 10.4477 18 11V15.1716C17.5821 15.3193 17.1981 15.5593 16.8787 15.8787C16.3161 16.4413 16 17.2044 16 18C16 18.7956 16.3161 19.5587 16.8787 20.1213C17.4413 20.6839 18.2044 21 19 21C19.7956 21 20.5587 20.6839 21.1213 20.1213C21.6839 19.5587 22 18.7956 22 18C22 17.2044 21.6839 16.4413 21.1213 15.8787C20.8019 15.5593 20.4179 15.3193 20 15.1716ZM19 17C19.2652 17 19.5196 17.1054 19.7071 17.2929C19.8946 17.4804 20 17.7348 20 18C20 18.2652 19.8946 18.5196 19.7071 18.7071C19.5196 18.8946 19.2652 19 19 19C18.7348 19 18.4804 18.8946 18.2929 18.7071C18.1054 18.5196 18 18.2652 18 18C18 17.7348 18.1054 17.4804 18.2929 17.2929C18.4804 17.1054 18.7348 17 19 17Z" fill="#E2E2E2"/>
<path d="M24.5858 25L23.2929 26.2929C22.9024 26.6834 22.9024 27.3166 23.2929 27.7071C23.6834 28.0976 24.3166 28.0976 24.7071 27.7071L27.7071 24.7071C28.0976 24.3166 28.0976 23.6834 27.7071 23.2929L24.7071 20.2929C24.3166 19.9024 23.6834 19.9024 23.2929 20.2929C22.9024 20.6834 22.9024 21.3166 23.2929 21.7071L24.5858 23H19C18.4477 23 18 23.4477 18 24C18 24.5523 18.4477 25 19 25H24.5858Z" fill="#E2E2E2"/>
</svg>
