<svg width="32" height="32" viewBox="0 0 32 32" fill="none" xmlns="http://www.w3.org/2000/svg">
<path d="M6.69746 6.69844C7.14466 6.25124 7.7512 6 8.38364 6H23.6144C24.2468 6 24.8534 6.25124 25.3006 6.69844C25.7478 7.14564 25.999 7.75218 25.999 8.38462V14C25.999 14.5523 25.5513 15 24.999 15C24.4467 15 23.999 14.5523 23.999 14V8.38462C23.999 8.28261 23.9585 8.18478 23.8864 8.11265C23.8142 8.04052 23.7164 8 23.6144 8H8.38364C8.28163 8 8.1838 8.04052 8.11167 8.11265C8.03955 8.18478 7.99902 8.28261 7.99902 8.38462V23.6154C7.99902 23.7174 8.03955 23.8152 8.11167 23.8873C8.1838 23.9595 8.28163 24 8.38364 24H13.999C14.5513 24 14.999 24.4477 14.999 25C14.999 25.5523 14.5513 26 13.999 26H8.38364C7.7512 26 7.14466 25.7488 6.69746 25.3016C6.25026 24.8544 5.99902 24.2478 5.99902 23.6154V8.38462C5.99902 7.75218 6.25026 7.14564 6.69746 6.69844Z" fill="#E2E2E2"/>
<path fill-rule="evenodd" clip-rule="evenodd" d="M13.999 15.8284C14.4169 15.6807 14.8009 15.4407 15.1203 15.1213C15.683 14.5587 15.999 13.7956 15.999 13C15.999 12.2044 15.683 11.4413 15.1203 10.8787C14.5577 10.3161 13.7947 10 12.999 10C12.2034 10 11.4403 10.3161 10.8777 10.8787C10.3151 11.4413 9.99902 12.2044 9.99902 13C9.99902 13.7956 10.3151 14.5587 10.8777 15.1213C11.1971 15.4407 11.5811 15.6807 11.999 15.8284V21C11.999 21.5523 12.4467 22 12.999 22C13.5513 22 13.999 21.5523 13.999 21V15.8284ZM12.999 14C12.7338 14 12.4795 13.8946 12.2919 13.7071C12.1044 13.5196 11.999 13.2652 11.999 13C11.999 12.7348 12.1044 12.4804 12.2919 12.2929C12.4795 12.1054 12.7338 12 12.999 12C13.2642 12 13.5186 12.1054 13.7061 12.2929C13.8937 12.4804 13.999 12.7348 13.999 13C13.999 13.2652 13.8937 13.5196 13.7061 13.7071C13.5186 13.8946 13.2642 14 12.999 14Z" fill="#E2E2E2"/>
<path d="M18.999 10C19.5513 10 19.999 10.4477 19.999 11V14.1716C20.4169 14.3193 20.8009 14.5593 21.1203 14.8787C21.5109 15.2692 21.5109 15.9024 21.1203 16.2929C20.7298 16.6834 20.0967 16.6834 19.7061 16.2929C19.5186 16.1054 19.2642 16 18.999 16C18.7338 16 18.4795 16.1054 18.2919 16.2929C18.1044 16.4804 17.999 16.7348 17.999 17C17.999 17.2652 18.1044 17.5196 18.2919 17.7071C18.6824 18.0976 18.6824 18.7308 18.2919 19.1213C17.9014 19.5118 17.2682 19.5118 16.8777 19.1213C16.3151 18.5587 15.999 17.7956 15.999 17C15.999 16.2044 16.3151 15.4413 16.8777 14.8787C17.1971 14.5593 17.5811 14.3193 17.999 14.1716V11C17.999 10.4477 18.4467 10 18.999 10Z" fill="#E2E2E2"/>
<path d="M22.4521 24.3162C22.5924 23.782 22.273 23.2353 21.7388 23.0951L19.0031 22.3769C18.4689 22.2366 17.9222 22.556 17.782 23.0902L17.0638 25.8259C16.9235 26.3601 17.2429 26.9068 17.7771 27.047C18.3112 27.1873 18.858 26.8679 18.9982 26.3337L19.105 25.9269C19.433 26.4257 19.7961 26.9 20.2045 27.2541C20.6008 27.5977 21.0973 27.8835 21.7041 27.9514C22.3159 28.0199 22.9135 27.853 23.4831 27.5203C23.96 27.2417 24.1208 26.6293 23.8422 26.1524C23.5636 25.6755 22.9512 25.5148 22.4743 25.7933C22.1804 25.965 22.0119 25.9734 21.9266 25.9638C21.8364 25.9537 21.7052 25.9082 21.5147 25.7431C21.2938 25.5514 21.0769 25.2779 20.8425 24.9275L21.231 25.0295C21.7652 25.1698 22.3119 24.8504 22.4521 24.3162Z" fill="#E2E2E2"/>
<path d="M23.27 21.7736C22.7358 21.6334 22.4164 21.0867 22.5567 20.5525C22.6969 20.0183 23.2436 19.699 23.7778 19.8392L24.1664 19.9412C23.9319 19.5908 23.715 19.3172 23.494 19.1256C23.3036 18.9605 23.1724 18.9149 23.0822 18.9048C22.9969 18.8953 22.8284 18.9036 22.5344 19.0753C22.0576 19.3539 21.4451 19.1931 21.1666 18.7162C20.888 18.2393 21.0488 17.6269 21.5257 17.3484C22.0952 17.0157 22.6929 16.8488 23.3047 16.9173C23.9115 16.9852 24.408 17.2709 24.8043 17.6145C25.2127 17.9687 25.5758 18.443 25.9038 18.9418L26.0106 18.535C26.1508 18.0008 26.6976 17.6814 27.2317 17.8217C27.7659 17.9619 28.0853 18.5086 27.945 19.0428L27.2268 21.7785C27.0866 22.3127 26.5399 22.6321 26.0057 22.4918L23.27 21.7736Z" fill="#E2E2E2"/>
</svg>
