<svg width="32" height="32" viewBox="0 0 32 32" fill="none" xmlns="http://www.w3.org/2000/svg">
<path fill-rule="evenodd" clip-rule="evenodd" d="M15 7C15 6.44772 15.4477 6 16 6H17.5C18.163 6 18.7989 6.26339 19.2678 6.73223C19.7366 7.20107 20 7.83696 20 8.5V10C20 10.5523 19.5523 11 19 11C18.4477 11 18 10.5523 18 10V8.5C18 8.36739 17.9473 8.24022 17.8536 8.14645C17.7598 8.05268 17.6326 8 17.5 8H16C15.4477 8 15 7.55228 15 7Z" fill="#E2E2E2"/>
<path fill-rule="evenodd" clip-rule="evenodd" d="M7.42857 8C7.39429 8 7.3037 8.01547 7.19793 8.14709C7.08753 8.28448 7 8.50928 7 8.77778V21.2222C7 21.4907 7.08753 21.7155 7.19793 21.8529C7.3037 21.9845 7.39429 22 7.42857 22H12C12.5523 22 13 22.4477 13 23C13 23.5523 12.5523 24 12 24H7.42857C6.70509 24 6.06896 23.6409 5.63891 23.1057C5.21349 22.5763 5 21.8967 5 21.2222V8.77778C5 8.10328 5.21349 7.42372 5.63891 6.89431C6.06896 6.35914 6.70509 6 7.42857 6H8.85714C9.40943 6 9.85714 6.44772 9.85714 7C9.85714 7.55228 9.40943 8 8.85714 8H7.42857Z" fill="#E2E2E2"/>
<path fill-rule="evenodd" clip-rule="evenodd" d="M15.6943 13.7497C16.1455 13.2759 16.7683 13 17.4286 13H24.5714C25.2317 13 25.8545 13.2759 26.3057 13.7497C26.7554 14.2219 27 14.8523 27 15.5V24.5C27 25.1477 26.7554 25.7781 26.3057 26.2503C25.8545 26.7241 25.2317 27 24.5714 27H17.4286C16.7683 27 16.1455 26.7241 15.6943 26.2503C15.2446 25.7781 15 25.1477 15 24.5V15.5C15 14.8523 15.2446 14.2219 15.6943 13.7497ZM17.4286 15C17.3311 15 17.2271 15.0402 17.1426 15.129C17.0564 15.2194 17 15.3521 17 15.5V24.5C17 24.6479 17.0564 24.7806 17.1426 24.871C17.2271 24.9598 17.3311 25 17.4286 25H24.5714C24.6689 25 24.7729 24.9598 24.8574 24.871C24.9436 24.7806 25 24.6479 25 24.5V15.5C25 15.3521 24.9436 15.2194 24.8574 15.129C24.7729 15.0402 24.6689 15 24.5714 15H17.4286Z" fill="#E2E2E2"/>
<path fill-rule="evenodd" clip-rule="evenodd" d="M18 18C18 17.4477 18.4477 17 19 17H23C23.5523 17 24 17.4477 24 18C24 18.5523 23.5523 19 23 19H22V22C22 22.5523 21.5523 23 21 23C20.4477 23 20 22.5523 20 22V19H19C18.4477 19 18 18.5523 18 18Z" fill="#E2E2E2"/>
<path fill-rule="evenodd" clip-rule="evenodd" d="M8.18876 5.41529C8.37671 5.15452 8.67856 5 9 5H16C16.3214 5 16.6233 5.15452 16.8112 5.41529C16.9992 5.67606 17.0503 6.01128 16.9487 6.31623L16.1766 8.63246C15.9044 9.44914 15.1401 10 14.2792 10H10.7208C9.8599 10 9.09562 9.44914 8.82339 8.63246L8.05132 6.31623C7.94967 6.01128 8.00081 5.67606 8.18876 5.41529ZM10.3874 7L10.7208 8H14.2792L14.6126 7H10.3874Z" fill="#E2E2E2"/>
</svg>
