<svg width="32" height="32" viewBox="0 0 32 32" fill="none" xmlns="http://www.w3.org/2000/svg">
<path fill-rule="evenodd" clip-rule="evenodd" d="M24 10.5C24 8.01472 21.9853 6 19.5 6H12.5C10.0147 6 8 8.01472 8 10.5C8 12.9853 10.0147 15 12.5 15H19.5C21.9853 15 24 12.9853 24 10.5ZM12.5 8H15.7578C15.2791 8.71505 15 9.57493 15 10.5C15 11.4251 15.2791 12.285 15.7578 13H12.5C11.1193 13 10 11.8807 10 10.5C10 9.11929 11.1193 8 12.5 8ZM22 10.5C22 11.8807 20.8807 13 19.5 13C18.1193 13 17 11.8807 17 10.5C17 9.11929 18.1193 8 19.5 8C20.8807 8 22 9.11929 22 10.5Z" fill="#E2E2E2"/>
<path fill-rule="evenodd" clip-rule="evenodd" d="M8 21.5C8 23.9853 10.0147 26 12.5 26H19.5C21.9853 26 24 23.9853 24 21.5C24 19.0147 21.9853 17 19.5 17H12.5C10.0147 17 8 19.0147 8 21.5ZM22 21.5C22 22.8807 20.8807 24 19.5 24C18.1193 24 17 22.8807 17 21.5C17 20.12 18.1181 19.0012 19.4978 19H19.5C20.7944 19 21.8591 19.9838 21.9871 21.2444C21.9956 21.3284 22 21.4137 22 21.5ZM15 21.5C15 20.5749 15.2791 19.715 15.7578 19L12.5 19C11.1193 19 10 20.1193 10 21.5C10 22.8807 11.1193 24 12.5 24H15.7578C15.2791 23.285 15 22.4251 15 21.5Z" fill="#E2E2E2"/>
</svg>
