<svg width="32" height="32" viewBox="0 0 32 32" fill="none" xmlns="http://www.w3.org/2000/svg">
<path fill-rule="evenodd" clip-rule="evenodd" d="M22.1707 8C22.5825 9.16519 23.6938 10 25 10C26.6569 10 28 8.65685 28 7C28 5.34315 26.6569 4 25 4C23.6938 4 22.5825 4.83481 22.1707 6H17C16.4477 6 16 6.44772 16 7C16 7.55228 16.4477 8 17 8H22.1707ZM24 7C24 6.44772 24.4477 6 25 6C25.5523 6 26 6.44772 26 7C26 7.55228 25.5523 8 25 8C24.4477 8 24 7.55228 24 7Z" fill="#E2E2E2"/>
<path fill-rule="evenodd" clip-rule="evenodd" d="M4 11C4 8.79086 5.79086 7 8 7C10.2091 7 12 8.79086 12 11V17C12 19.2091 10.2091 21 8 21C5.79086 21 4 19.2091 4 17V11ZM8 9C6.89543 9 6 9.89543 6 11V17C6 18.1046 6.89543 19 8 19C9.10457 19 10 18.1046 10 17V11C10 9.89543 9.10457 9 8 9Z" fill="#E2E2E2"/>
<path d="M14.9975 17C15.5498 16.9987 15.9985 17.4454 15.9998 17.9977C16.002 18.9248 15.8118 19.8419 15.4415 20.6959C15.0713 21.5499 14.529 22.3224 13.8484 22.9707C13.1678 23.6188 12.3622 24.1301 11.4789 24.4775C10.6892 24.788 9.85003 24.9626 9 24.9946V27C9 27.5523 8.55228 28 8 28C7.44772 28 7 27.5523 7 27V24.9975C6.65216 24.9914 6.30639 24.975 6.03121 24.9589C5.85211 24.9485 5.69968 24.9379 5.5916 24.93C5.53751 24.926 5.4944 24.9227 5.46445 24.9203L5.42965 24.9175L5.41636 24.9164C4.86602 24.8701 4.45725 24.3864 4.50358 23.836C4.54991 23.2857 5.03354 22.8772 5.58383 22.9234L5.5927 22.9242L5.62242 22.9266C5.64886 22.9287 5.68815 22.9317 5.73811 22.9354C5.83815 22.9427 5.98045 22.9525 6.14782 22.9623C6.43719 22.9792 6.79218 22.9954 7.12994 22.9992L8.86918 22.9978C9.51479 22.9799 10.1512 22.8505 10.747 22.6162C11.394 22.3618 11.9789 21.9893 12.4691 21.5224C12.9592 21.0557 13.3449 20.504 13.6066 19.9004C13.8682 19.297 14.0014 18.6521 13.9998 18.0023C13.9985 17.4501 14.4452 17.0013 14.9975 17Z" fill="#E2E2E2"/>
<path fill-rule="evenodd" clip-rule="evenodd" d="M21.8293 12L27 12C27.5523 12 28 12.4477 28 13C28 13.5523 27.5523 14 27 14L21.8293 14C21.4175 15.1652 20.3062 16 19 16C17.3431 16 16 14.6569 16 13C16 11.3431 17.3431 10 19 10C20.3062 10 21.4175 10.8348 21.8293 12ZM19 12C19.5523 12 20 12.4477 20 13C20 13.5523 19.5523 14 19 14C18.4477 14 18 13.5523 18 13C18 12.4477 18.4477 12 19 12Z" fill="#E2E2E2"/>
</svg>
