<svg width="32" height="32" viewBox="0 0 32 32" fill="none" xmlns="http://www.w3.org/2000/svg">
<path fill-rule="evenodd" clip-rule="evenodd" d="M10 6C7.79086 6 6 7.79086 6 10C6 12.2091 7.79086 14 10 14C12.2091 14 14 12.2091 14 10C14 7.79086 12.2091 6 10 6ZM8 10C8 8.89543 8.89543 8 10 8C11.1046 8 12 8.89543 12 10C12 11.1046 11.1046 12 10 12C8.89543 12 8 11.1046 8 10Z" fill="#E2E2E2"/>
<path fill-rule="evenodd" clip-rule="evenodd" d="M10 16C7.79086 16 6 17.7909 6 20C6 22.2091 7.79086 24 10 24C12.2091 24 14 22.2091 14 20C14 17.7909 12.2091 16 10 16ZM8 20C8 18.8954 8.89543 18 10 18C11.1046 18 12 18.8954 12 20C12 21.1046 11.1046 22 10 22C8.89543 22 8 21.1046 8 20Z" fill="#E2E2E2"/>
<path fill-rule="evenodd" clip-rule="evenodd" d="M21.8293 18L27 18C27.5523 18 28 18.4477 28 19C28 19.5523 27.5523 20 27 20L21.8293 20C21.4175 21.1652 20.3062 22 19 22C17.3431 22 16 20.6569 16 19C16 17.3431 17.3431 16 19 16C20.3062 16 21.4175 16.8348 21.8293 18ZM19 18C19.5523 18 20 18.4477 20 19C20 19.5523 19.5523 20 19 20C18.4477 20 18 19.5523 18 19C18 18.4477 18.4477 18 19 18Z" fill="#E2E2E2"/>
<path fill-rule="evenodd" clip-rule="evenodd" d="M17 12C16.4477 12 16 12.4477 16 13C16 13.5523 16.4477 14 17 14H22.1707C22.5825 15.1652 23.6938 16 25 16C26.6569 16 28 14.6569 28 13C28 11.3431 26.6569 10 25 10C23.6938 10 22.5825 10.8348 22.1707 12H17ZM24 13C24 13.5523 24.4477 14 25 14C25.5523 14 26 13.5523 26 13C26 12.4477 25.5523 12 25 12C24.4477 12 24 12.4477 24 13Z" fill="#E2E2E2"/>
</svg>
