<svg width="32" height="32" viewBox="0 0 32 32" fill="none" xmlns="http://www.w3.org/2000/svg">
<path fill-rule="evenodd" clip-rule="evenodd" d="M21.5005 10.3343V18.8962C21.5005 19.4484 21.9482 19.8962 22.5005 19.8962C23.0528 19.8962 23.5005 19.4484 23.5005 18.8962V10.0921C23.5005 9.39181 23.0695 8.88298 22.6147 8.61671C22.1566 8.34856 21.581 8.25577 21.0219 8.38774C20.9847 8.3965 20.9481 8.40739 20.9122 8.42034L12.8969 11.3121C12.2084 11.4996 11.5005 12.0869 11.5005 12.9999V22.2414C11.5005 22.7937 11.9483 23.2414 12.5005 23.2414C13.0528 23.2414 13.5005 22.7937 13.5005 22.2414V13.22C13.5108 13.2167 13.5211 13.2132 13.5313 13.2095L21.5005 10.3343Z" fill="#E2E2E2"/>
<path d="M22.5005 18.9977C22.5005 19.9186 21.754 20.6651 20.8331 20.6651C19.9123 20.6651 19.1657 19.9186 19.1657 18.9977C19.1657 18.0769 19.9123 17.3304 20.8331 17.3304C21.754 17.3304 22.5005 18.0769 22.5005 18.9977Z" fill="#E2E2E2"/>
<path fill-rule="evenodd" clip-rule="evenodd" d="M20.8331 18.3304C20.4645 18.3304 20.1657 18.6292 20.1657 18.9977C20.1657 19.3663 20.4645 19.6651 20.8331 19.6651C21.2017 19.6651 21.5005 19.3663 21.5005 18.9977C21.5005 18.6292 21.2017 18.3304 20.8331 18.3304ZM18.1657 18.9977C18.1657 17.5246 19.36 16.3304 20.8331 16.3304C22.3063 16.3304 23.5005 17.5246 23.5005 18.9977C23.5005 20.4709 22.3063 21.6651 20.8331 21.6651C19.36 21.6651 18.1657 20.4709 18.1657 18.9977Z" fill="#E2E2E2"/>
<path d="M12.4998 22.3325C12.4998 23.2533 11.7533 23.9998 10.8324 23.9998C9.91155 23.9998 9.16504 23.2533 9.16504 22.3325C9.16504 21.4116 9.91155 20.6651 10.8324 20.6651C11.7533 20.6651 12.4998 21.4116 12.4998 22.3325Z" fill="#E2E2E2"/>
<path fill-rule="evenodd" clip-rule="evenodd" d="M10.8324 21.6651C10.4638 21.6651 10.165 21.9639 10.165 22.3325C10.165 22.701 10.4638 22.9998 10.8324 22.9998C11.201 22.9998 11.4998 22.701 11.4998 22.3325C11.4998 21.9639 11.201 21.6651 10.8324 21.6651ZM8.16504 22.3325C8.16504 20.8593 9.35926 19.6651 10.8324 19.6651C12.3056 19.6651 13.4998 20.8593 13.4998 22.3325C13.4998 23.8056 12.3056 24.9998 10.8324 24.9998C9.35926 24.9998 8.16504 23.8056 8.16504 22.3325Z" fill="#E2E2E2"/>
</svg>
