<svg width="32" height="32" viewBox="0 0 32 32" fill="none" xmlns="http://www.w3.org/2000/svg">
<path d="M14 10C14.5523 10 15 10.4477 15 11V12H16C16.5523 12 17 12.4477 17 13C17 13.5523 16.5523 14 16 14H15V15C15 15.5523 14.5523 16 14 16C13.4477 16 13 15.5523 13 15V14H12C11.4477 14 11 13.5523 11 13C11 12.4477 11.4477 12 12 12H13V11C13 10.4477 13.4477 10 14 10Z" fill="#E2E2E2"/>
<path d="M17 17C16.4477 17 16 17.4477 16 18C16 18.5523 16.4477 19 17 19H19C19.5523 19 20 18.5523 20 18C20 17.4477 19.5523 17 19 17H17Z" fill="#E2E2E2"/>
<path fill-rule="evenodd" clip-rule="evenodd" d="M16 6C13.6131 6 11.3239 6.94821 9.63604 8.63604C7.94821 10.3239 7 12.6131 7 15C7 17.3869 7.94821 19.6761 9.63604 21.364C11.3239 23.0518 13.6131 24 16 24C17.1819 24 18.3522 23.7672 19.4442 23.3149C20.0055 23.0824 20.5404 22.7942 21.0413 22.4555L25.2929 26.7071C25.6834 27.0976 26.3166 27.0976 26.7071 26.7071C27.0976 26.3166 27.0976 25.6834 26.7071 25.2929L22.5677 21.1535C23.3079 20.3635 23.9 19.4458 24.3149 18.4442C24.7672 17.3522 25 16.1819 25 15C25 13.8181 24.7672 12.6478 24.3149 11.5558C23.8626 10.4639 23.1997 9.47177 22.364 8.63604C21.5282 7.80031 20.5361 7.13738 19.4442 6.68508C18.3522 6.23279 17.1819 6 16 6ZM11.0503 10.0503C12.363 8.7375 14.1435 8 16 8C16.9193 8 17.8295 8.18106 18.6788 8.53284C19.5281 8.88463 20.2997 9.40024 20.9497 10.0503C21.5998 10.7003 22.1154 11.4719 22.4672 12.3212C22.8189 13.1705 23 14.0807 23 15C23 15.9193 22.8189 16.8295 22.4672 17.6788C22.1154 18.5281 21.5998 19.2997 20.9497 19.9497C20.2997 20.5998 19.5281 21.1154 18.6788 21.4672C17.8295 21.8189 16.9193 22 16 22C14.1435 22 12.363 21.2625 11.0503 19.9497C9.7375 18.637 9 16.8565 9 15C9 13.1435 9.7375 11.363 11.0503 10.0503Z" fill="#E2E2E2"/>
</svg>
