<svg width="32" height="32" viewBox="0 0 32 32" fill="none" xmlns="http://www.w3.org/2000/svg">
<path fill-rule="evenodd" clip-rule="evenodd" d="M12.5858 8.58579C12.9609 8.21071 13.4696 8 14 8H18C18.5304 8 19.0391 8.21071 19.4142 8.58579C19.7893 8.96086 20 9.46957 20 10V12C20 12.5304 19.7893 13.0391 19.4142 13.4142C19.0391 13.7893 18.5304 14 18 14H14C13.4696 14 12.9609 13.7893 12.5858 13.4142C12.2107 13.0391 12 12.5304 12 12V10C12 9.46957 12.2107 8.96086 12.5858 8.58579ZM18 10H14V12H18V10Z" fill="white"/>
<path fill-rule="evenodd" clip-rule="evenodd" d="M6.58579 18.5858C6.96086 18.2107 7.46957 18 8 18H12C12.5304 18 13.0391 18.2107 13.4142 18.5858C13.7893 18.9609 14 19.4696 14 20V22C14 22.5304 13.7893 23.0391 13.4142 23.4142C13.0391 23.7893 12.5304 24 12 24H8C7.46957 24 6.96086 23.7893 6.58579 23.4142C6.21071 23.0391 6 22.5304 6 22V20C6 19.4696 6.21071 18.9609 6.58579 18.5858ZM12 20H8V22H12V20Z" fill="white"/>
<path fill-rule="evenodd" clip-rule="evenodd" d="M18.5858 18.5858C18.9609 18.2107 19.4696 18 20 18H24C24.5304 18 25.0391 18.2107 25.4142 18.5858C25.7893 18.9609 26 19.4696 26 20V22C26 22.5304 25.7893 23.0391 25.4142 23.4142C25.0391 23.7893 24.5304 24 24 24H20C19.4696 24 18.9609 23.7893 18.5858 23.4142C18.2107 23.0391 18 22.5304 18 22V20C18 19.4696 18.2107 18.9609 18.5858 18.5858ZM24 20H20V22H24V20Z" fill="white"/>
</svg>
