<svg width="32" height="32" viewBox="0 0 32 32" fill="none" xmlns="http://www.w3.org/2000/svg">
<path fill-rule="evenodd" clip-rule="evenodd" d="M20 13C16.6863 13 14 15.6863 14 19C14 22.3137 16.6863 25 20 25C23.3137 25 26 22.3137 26 19C26 15.6863 23.3137 13 20 13ZM12 19C12 14.5817 15.5817 11 20 11C24.4183 11 28 14.5817 28 19C28 23.4183 24.4183 27 20 27C15.5817 27 12 23.4183 12 19Z" fill="#E2E2E2"/>
<path fill-rule="evenodd" clip-rule="evenodd" d="M5 8C5 6.34315 6.34315 5 8 5H17C17.5523 5 18 5.44772 18 6C18 6.55228 17.5523 7 17 7H8C7.44772 7 7 7.44772 7 8V16C7 16.5523 7.44772 17 8 17H9C9.55228 17 10 17.4477 10 18C10 18.5523 9.55228 19 9 19H8C6.34315 19 5 17.6569 5 16V8Z" fill="#E2E2E2"/>
<path fill-rule="evenodd" clip-rule="evenodd" d="M9 14C9 13.4477 9.44772 13 10 13C10.5523 13 11.0001 13.4477 11.0001 14C11.0001 14.5523 10.5524 15 10.0001 15C9.44782 15 9 14.5523 9 14Z" fill="#E2E2E2"/>
<path fill-rule="evenodd" clip-rule="evenodd" d="M9 10C9 9.44772 9.44772 9 10 9C10.5523 9 11.0001 9.44772 11.0001 10C11.0001 10.5523 10.5524 11 10.0001 11C9.44782 11 9 10.5523 9 10Z" fill="#E2E2E2"/>
<path fill-rule="evenodd" clip-rule="evenodd" d="M13 10C13 9.44772 13.4477 9 14 9C14.5523 9 15.0001 9.44772 15.0001 10C15.0001 10.5523 14.5524 11 14.0001 11C13.4478 11 13 10.5523 13 10Z" fill="#E2E2E2"/>
</svg>
