<svg width="32" height="32" viewBox="0 0 32 32" fill="none" xmlns="http://www.w3.org/2000/svg">
<path fill-rule="evenodd" clip-rule="evenodd" d="M8.61826 7L8.61933 7L10 7C10.5523 7 11 7.44772 11 8C11 8.55229 10.5523 9 10 9H9V10C9 10.5523 8.55228 11 8 11C7.44772 11 7 10.5523 7 10L7 8.61826C7.00046 8.18921 7.1711 7.77787 7.47449 7.47449C7.77787 7.1711 8.18921 7.00046 8.61826 7Z" fill="#E2E2E2"/>
<path fill-rule="evenodd" clip-rule="evenodd" d="M13 8C13 7.44772 13.4477 7 14 7H18C18.5523 7 19 7.44772 19 8C19 8.55229 18.5523 9 18 9H14C13.4477 9 13 8.55229 13 8Z" fill="#E2E2E2"/>
<path fill-rule="evenodd" clip-rule="evenodd" d="M13 24C13 23.4477 13.4477 23 14 23H18C18.5523 23 19 23.4477 19 24C19 24.5523 18.5523 25 18 25H14C13.4477 25 13 24.5523 13 24Z" fill="#E2E2E2"/>
<path fill-rule="evenodd" clip-rule="evenodd" d="M8 13C8.55228 13 9 13.4477 9 14L9 18C9 18.5523 8.55228 19 8 19C7.44772 19 7 18.5523 7 18L7 14C7 13.4477 7.44772 13 8 13Z" fill="#E2E2E2"/>
<path fill-rule="evenodd" clip-rule="evenodd" d="M24 13C24.5523 13 25 13.4477 25 14V18C25 18.5523 24.5523 19 24 19C23.4477 19 23 18.5523 23 18V14C23 13.4477 23.4477 13 24 13Z" fill="#E2E2E2"/>
<path fill-rule="evenodd" clip-rule="evenodd" d="M24 21C24.5523 21 25 21.4477 25 22V26C25 26.5523 24.5523 27 24 27C23.4477 27 23 26.5523 23 26V22C23 21.4477 23.4477 21 24 21Z" fill="#E2E2E2"/>
<path fill-rule="evenodd" clip-rule="evenodd" d="M21 24C21 23.4477 21.4477 23 22 23H26C26.5523 23 27 23.4477 27 24C27 24.5523 26.5523 25 26 25H22C21.4477 25 21 24.5523 21 24Z" fill="#E2E2E2"/>
<path fill-rule="evenodd" clip-rule="evenodd" d="M21 8C21 7.44772 21.4477 7 22 7H23.3813C24.2757 7 25 7.72575 25 8.61933V10C25 10.5523 24.5523 11 24 11C23.4477 11 23 10.5523 23 10V9H22C21.4477 9 21 8.55229 21 8Z" fill="#E2E2E2"/>
<path fill-rule="evenodd" clip-rule="evenodd" d="M8 21C8.55228 21 9 21.4477 9 22V23H10C10.5523 23 11 23.4477 11 24C11 24.5523 10.5523 25 10 25H8.61826C8.18921 24.9995 7.77787 24.8289 7.47449 24.5255C7.1711 24.2221 7.00046 23.8108 7 23.3817L7 22C7 21.4477 7.44772 21 8 21Z" fill="#E2E2E2"/>
</svg>
