<svg width="32" height="32" viewBox="0 0 32 32" fill="none" xmlns="http://www.w3.org/2000/svg">
<path fill-rule="evenodd" clip-rule="evenodd" d="M12.5858 8.58579C12.9609 8.21071 13.4696 8 14 8H18C18.5304 8 19.0391 8.21071 19.4142 8.58579C19.7893 8.96086 20 9.46957 20 10V12C20 12.5304 19.7893 13.0391 19.4142 13.4142C19.0391 13.7893 18.5304 14 18 14H14C13.4696 14 12.9609 13.7893 12.5858 13.4142C12.2107 13.0391 12 12.5304 12 12V10C12 9.46957 12.2107 8.96086 12.5858 8.58579ZM18 10H14V12H18V10Z" fill="white"/>
<path fill-rule="evenodd" clip-rule="evenodd" d="M6.58579 18.5858C6.96086 18.2107 7.46957 18 8 18H12C12.5304 18 13.0391 18.2107 13.4142 18.5858C13.7893 18.9609 14 19.4696 14 20V22C14 22.5304 13.7893 23.0391 13.4142 23.4142C13.0391 23.7893 12.5304 24 12 24H8C7.46957 24 6.96086 23.7893 6.58579 23.4142C6.21071 23.0391 6 22.5304 6 22V20C6 19.4696 6.21071 18.9609 6.58579 18.5858ZM12 20H8V22H12V20Z" fill="white"/>
<path fill-rule="evenodd" clip-rule="evenodd" d="M18.5858 18.5858C18.9609 18.2107 19.4696 18 20 18H24C24.5304 18 25.0391 18.2107 25.4142 18.5858C25.7893 18.9609 26 19.4696 26 20V22C26 22.5304 25.7893 23.0391 25.4142 23.4142C25.0391 23.7893 24.5304 24 24 24H20C19.4696 24 18.9609 23.7893 18.5858 23.4142C18.2107 23.0391 18 22.5304 18 22V20C18 19.4696 18.2107 18.9609 18.5858 18.5858ZM24 20H20V22H24V20Z" fill="white"/>
<path fill-rule="evenodd" clip-rule="evenodd" d="M16 12C16.5523 12 17 12.4477 17 13C17 15.2091 15.2091 17 13 17C11.8954 17 11 17.8954 11 19C11 19.5523 10.5523 20 10 20C9.44772 20 9 19.5523 9 19C9 16.7909 10.7909 15 13 15C14.1046 15 15 14.1046 15 13C15 12.4477 15.4477 12 16 12Z" fill="white"/>
<path fill-rule="evenodd" clip-rule="evenodd" d="M16 12C15.4477 12 15 12.4477 15 13C15 15.2091 16.7909 17 19 17C20.1046 17 21 17.8954 21 19C21 19.5523 21.4477 20 22 20C22.5523 20 23 19.5523 23 19C23 16.7909 21.2091 15 19 15C17.8954 15 17 14.1046 17 13C17 12.4477 16.5523 12 16 12Z" fill="white"/>
</svg>
