<svg width="32" height="32" viewBox="0 0 32 32" fill="none" xmlns="http://www.w3.org/2000/svg">
<path d="M24.46 25H7.54C6.9 25 6.29 24.79 5.83 24.42C5.3 24 5 23.4 5 22.77V9.23C5 8.6 5.3 8 5.82 7.58C6.29 7.21 6.9 7 7.53 7H24.45C25.09 7 25.7 7.21 26.16 7.58C26.68 8 26.99 8.6 26.99 9.23V22.77C26.99 23.4 26.69 24 26.16 24.42C25.7 24.79 25.09 25 24.45 25H24.46ZM7.54 9C7.36 9 7.19 9.05 7.08 9.14C7.02 9.18 7.01 9.22 7.01 9.23V22.77C7.01 22.77 7.03 22.81 7.09 22.86C7.2 22.95 7.37 23 7.55 23H24.47C24.65 23 24.82 22.95 24.93 22.86C24.99 22.81 25.01 22.78 25.01 22.77V9.23C25.01 9.23 24.99 9.19 24.93 9.14C24.82 9.05 24.65 9 24.47 9H7.54Z" fill="#E2E2E2"/>
<path d="M13.78 21C13.48 21 13.19 20.93 12.93 20.79C12.67 20.66 12.43 20.45 12.27 20.19C12.09 19.91 12 19.6 12.01 19.28V12.72C12.02 12.4 12.12 12.09 12.29 11.82C12.45 11.56 12.69 11.35 12.97 11.21C13.46 10.95 14.14 10.94 14.66 11.22L20.18 14.57C20.42 14.72 20.63 14.92 20.78 15.17C20.93 15.43 21.01 15.73 21.01 16.02C21.01 16.31 20.93 16.6 20.78 16.86C20.63 17.11 20.42 17.32 20.17 17.47L14.68 20.77C14.38 20.93 14.08 21.01 13.78 21.01V21ZM14.01 13.17V18.84L18.7 16.02L14.01 13.18V13.17Z" fill="#E2E2E2"/>
</svg>
