<svg width="32" height="32" viewBox="0 0 32 32" fill="none" xmlns="http://www.w3.org/2000/svg">
<path fill-rule="evenodd" clip-rule="evenodd" d="M17 23.8462C17 24.2415 17.1146 24.5783 17.2643 24.7879C17.411 24.9933 17.525 25 17.5385 25H24.4615C24.475 25 24.589 24.9933 24.7357 24.7879C24.8854 24.5783 25 24.2415 25 23.8462V14.1538C25 13.7585 24.8854 13.4217 24.7357 13.2121C24.5889 13.0067 24.475 13 24.4615 13L17.5385 13C17.525 13 17.411 13.0067 17.2643 13.2121C17.1146 13.4217 17 13.7585 17 14.1538V23.8462ZM15.6369 25.9504C15.2096 25.3522 15 24.5933 15 23.8462V14.1538C15 13.4067 15.2096 12.6478 15.6369 12.0496C16.0672 11.4472 16.7359 11 17.5385 11L24.4615 11C25.2641 11 25.9328 11.4472 26.3631 12.0496C26.7904 12.6478 27 13.4067 27 14.1538V23.8462C27 24.5933 26.7904 25.3522 26.3631 25.9504C25.9328 26.5528 25.2641 27 24.4615 27H17.5385C16.7359 27 16.0672 26.5528 15.6369 25.9504Z" fill="#E2E2E2"/>
<path fill-rule="evenodd" clip-rule="evenodd" d="M18 16C18 15.4477 18.4477 15 19 15H23C23.5523 15 24 15.4477 24 16C24 16.5523 23.5523 17 23 17H19C18.4477 17 18 16.5523 18 16Z" fill="#E2E2E2"/>
<path fill-rule="evenodd" clip-rule="evenodd" d="M18 19C18 18.4477 18.4477 18 19 18H23C23.5523 18 24 18.4477 24 19C24 19.5523 23.5523 20 23 20H19C18.4477 20 18 19.5523 18 19Z" fill="#E2E2E2"/>
<path fill-rule="evenodd" clip-rule="evenodd" d="M18 22C18 21.4477 18.4477 21 19 21H23C23.5523 21 24 21.4477 24 22C24 22.5523 23.5523 23 23 23H19C18.4477 23 18 22.5523 18 22Z" fill="#E2E2E2"/>
<path fill-rule="evenodd" clip-rule="evenodd" d="M10.9528 7H7.0472C7.02399 7.04841 7 7.12738 7 7.23077V12.7692C7 12.8726 7.02399 12.9516 7.0472 13H10.9528C10.976 12.9516 11 12.8726 11 12.7692V7.23077C11 7.12738 10.976 7.04841 10.9528 7ZM12.5296 5.76048C12.8494 6.18678 13 6.71774 13 7.23077V12.7692C13 13.2823 12.8494 13.8132 12.5296 14.2395C12.2058 14.6713 11.695 15 11.0769 15H6.92308C6.30498 15 5.79421 14.6713 5.47036 14.2395C5.15064 13.8132 5 13.2823 5 12.7692L5 7.23077C5 6.71774 5.15064 6.18678 5.47036 5.76048C5.79421 5.32868 6.30498 5 6.92308 5L11.0769 5C11.695 5 12.2058 5.32868 12.5296 5.76048Z" fill="#E2E2E2"/>
</svg>
