<svg width="32" height="32" viewBox="0 0 32 32" fill="none" xmlns="http://www.w3.org/2000/svg">
<path fill-rule="evenodd" clip-rule="evenodd" d="M22.1707 8C22.5825 9.16519 23.6938 10 25 10C26.6569 10 28 8.65685 28 7C28 5.34315 26.6569 4 25 4C23.6938 4 22.5825 4.83481 22.1707 6H17C16.4477 6 16 6.44772 16 7C16 7.55228 16.4477 8 17 8H22.1707ZM24 7C24 6.44772 24.4477 6 25 6C25.5523 6 26 6.44772 26 7C26 7.55228 25.5523 8 25 8C24.4477 8 24 7.55228 24 7Z" fill="#E2E2E2"/>
<path fill-rule="evenodd" clip-rule="evenodd" d="M21.8293 12L27 12C27.5523 12 28 12.4477 28 13C28 13.5523 27.5523 14 27 14L21.8293 14C21.4175 15.1652 20.3062 16 19 16C17.3431 16 16 14.6569 16 13C16 11.3431 17.3431 10 19 10C20.3062 10 21.4175 10.8348 21.8293 12ZM19 12C19.5523 12 20 12.4477 20 13C20 13.5523 19.5523 14 19 14C18.4477 14 18 13.5523 18 13C18 12.4477 18.4477 12 19 12Z" fill="#E2E2E2"/>
<path fill-rule="evenodd" clip-rule="evenodd" d="M11.9109 12.0055C12.3585 11.9694 12.774 12.1141 13.1037 12.3643C13.4265 12.6092 13.6544 12.9423 13.7975 13.2909C13.94 13.638 14.0059 14.0165 13.9996 14.3889V25.6188L13.9995 25.6341C13.9869 26.4482 13.6366 27.2113 13.0216 27.6509C12.7092 27.8741 12.3136 28.02 11.8772 27.9978C11.432 27.9753 11.0291 27.7819 10.7121 27.4732L10.6992 27.4604L7.08283 23.809H5.99995C5.31098 23.809 4.78909 23.4065 4.4809 22.9735C4.1682 22.5342 4 21.9762 4 21.4041V18.5943C4 18.0221 4.1682 17.4642 4.4809 17.0248C4.78909 16.5919 5.31098 16.1894 5.99995 16.1894H7.08949L10.7991 12.528C11.0853 12.2471 11.4671 12.0413 11.9109 12.0055ZM11.983 14.1697L8.20233 17.9011C8.01519 18.0858 7.76282 18.1894 7.49987 18.1894H6.10696C6.05673 18.2626 6 18.405 6 18.5943V21.4041C6 21.5934 6.05673 21.7358 6.10696 21.809H7.49987C7.76676 21.809 8.02258 21.9157 8.21039 22.1053L11.9496 25.8807C11.9753 25.8158 11.9971 25.7269 11.9996 25.6098V14.3796L11.9998 14.3587C12.0012 14.2908 11.9948 14.2268 11.983 14.1697Z" fill="#E2E2E2"/>
</svg>
