<svg width="32" height="32" viewBox="0 0 32 32" fill="none" xmlns="http://www.w3.org/2000/svg">
<path fill-rule="evenodd" clip-rule="evenodd" d="M14.5858 18.4142C14.9609 18.7893 15.4696 19 16 19C16.5304 19 17.0391 18.7893 17.4142 18.4142C17.7893 18.0391 18 17.5304 18 17C18 16.4696 17.7893 15.9609 17.4142 15.5858C17.0391 15.2107 16.5304 15 16 15C15.4696 15 14.9609 15.2107 14.5858 15.5858C14.2107 15.9609 14 16.4696 14 17C14 17.5304 14.2107 18.0391 14.5858 18.4142Z" fill="#E2E2E2"/>
<path fill-rule="evenodd" clip-rule="evenodd" d="M7.61826 6L7.61933 6L9 6C9.55228 6 10 6.44772 10 7C10 7.55229 9.55228 8 9 8H8V9C8 9.55229 7.55228 10 7 10C6.44772 10 6 9.55229 6 9L6 7.61826C6.00046 7.18921 6.1711 6.77787 6.47449 6.47449C6.77787 6.1711 7.18921 6.00046 7.61826 6Z" fill="#E2E2E2"/>
<path fill-rule="evenodd" clip-rule="evenodd" d="M22 7C22 6.44772 22.4477 6 23 6H24.3813C25.2757 6 26 6.72575 26 7.61933V9C26 9.55229 25.5523 10 25 10C24.4477 10 24 9.55229 24 9V8H23C22.4477 8 22 7.55229 22 7Z" fill="#E2E2E2"/>
<path fill-rule="evenodd" clip-rule="evenodd" d="M7 22C7.55228 22 8 22.4477 8 23V24H9C9.55228 24 10 24.4477 10 25C10 25.5523 9.55228 26 9 26H7.61826C7.18921 25.9995 6.77787 25.8289 6.47449 25.5255C6.1711 25.2221 6.00046 24.8108 6 24.3817L6 23C6 22.4477 6.44772 22 7 22Z" fill="#E2E2E2"/>
<path fill-rule="evenodd" clip-rule="evenodd" d="M25 22C25.5523 22 26 22.4477 26 23V24.3807C26 24.8098 25.8296 25.2215 25.5263 25.5251C25.223 25.8287 24.8116 25.9995 24.3824 26H23C22.4477 26 22 25.5523 22 25C22 24.4477 22.4477 24 23 24H24V23C24 22.4477 24.4477 22 25 22Z" fill="#E2E2E2"/>
<path fill-rule="evenodd" clip-rule="evenodd" d="M22.4138 12.5854C22.7891 12.9605 23 13.4694 23 14V19.3333C23 19.3436 23 19.3549 23 19.3669C23.0003 19.4965 23.0006 19.7227 22.9795 19.926C22.959 20.1224 22.8862 20.7456 22.3809 21.2845C21.8507 21.8502 21.2034 21.9482 20.9717 21.9757C20.7586 22.0009 20.5244 22.0004 20.4059 22.0001C20.3945 22 20.3841 22 20.375 22H11.625C11.6159 22 11.6055 22 11.5941 22.0001C11.4756 22.0004 11.2414 22.0009 11.0283 21.9757C10.7966 21.9482 10.1493 21.8502 9.61905 21.2845C9.11375 20.7456 9.04099 20.1224 9.02053 19.926C8.99936 19.7227 8.99974 19.4965 8.99996 19.3669C8.99998 19.3549 9 19.3436 9 19.3333V14C9 12.8954 9.89543 12 11 12H12.3915L13.054 10.94C13.4195 10.3552 14.0604 10 14.75 10H17.25C17.9396 10 18.5805 10.3552 18.946 10.94L19.6086 12.0001C20.1008 12.0002 20.6042 12.0002 20.9988 12C21.5295 11.9997 22.0385 12.2103 22.4138 12.5854ZM17.25 12L18.5 14C18.6527 14 18.8217 14 19 14C19.0858 14.0001 19.1738 14.0001 19.2632 14.0001C19.857 14.0002 20.5119 14.0003 21 14V19.3333C21 20 21 20 20.375 20H11.625C11 20 11 20 11 19.3333V14H13.5L14.75 12H17.25Z" fill="#E2E2E2"/>
</svg>
