<svg width="32" height="32" viewBox="0 0 32 32" fill="none" xmlns="http://www.w3.org/2000/svg">
<path d="M12.11 22.99C11.75 22.99 11.39 22.8999 11.08 22.7198C10.77 22.5497 10.49 22.2895 10.3 21.9693C10.1 21.659 10 21.2888 10 20.9085L10.02 11.0615C10.02 10.6912 10.12 10.3209 10.32 10.0007C10.51 9.68049 10.79 9.4203 11.12 9.25018C11.71 8.91994 12.54 8.90994 13.17 9.26019L21.04 14.2738C21.33 14.4539 21.57 14.7141 21.74 15.0143C21.91 15.3245 22 15.6648 22 16.015C22 16.3653 21.91 16.7055 21.74 17.0057C21.57 17.3059 21.33 17.5661 21.03 17.7462L13.18 22.6998C12.82 22.8999 12.46 23 12.1 23L12.11 22.99ZM12.14 10.9714L12.03 11.0415C12.03 11.0415 12.03 11.0615 12.03 11.0715L12.01 20.9285L12.12 20.9986L19.98 16.065L12.14 10.9714Z" fill="#E2E2E2"/>
</svg>
