<svg width="32" height="32" viewBox="0 0 32 32" fill="none" xmlns="http://www.w3.org/2000/svg">
<path d="M16.0001 20C14.9201 20 13.8701 19.49 13.1201 18.61C12.4001 17.76 12.0001 16.65 12.0001 15.47V10.53C12.0001 9.35 12.4001 8.23 13.1201 7.39C13.8701 6.51 14.9201 6 16.0001 6C17.0801 6 18.1301 6.51 18.8801 7.39C19.6001 8.24 20.0001 9.35 20.0001 10.53V15.47C20.0001 16.65 19.6001 17.77 18.8801 18.61C18.1301 19.49 17.0801 20 16.0001 20ZM16.0001 8C15.5001 8 15.0101 8.24 14.6401 8.68C14.2301 9.16 14.0001 9.83 14.0001 10.53V15.47C14.0001 16.17 14.2301 16.84 14.6401 17.32C15.3901 18.2 16.6101 18.2 17.3601 17.32C17.7701 16.84 18.0001 16.17 18.0001 15.47V10.53C18.0001 9.83 17.7701 9.16 17.3601 8.68C16.9901 8.24 16.5001 8 16.0001 8Z" fill="#E2E2E2"/>
<path d="M24.0001 25C23.7401 25 23.4901 24.9 23.2901 24.71L7.29006 8.71C6.90006 8.32 6.90006 7.68 7.29006 7.29C7.68006 6.9 8.31006 6.9 8.70006 7.29L24.7001 23.29C25.0901 23.68 25.0901 24.31 24.7001 24.7C24.5001 24.9 24.2501 24.99 23.9901 24.99L24.0001 25Z" fill="#E2E2E2"/>
<path d="M16.7101 23H15.2901C14.3401 23 13.4101 22.82 12.5201 22.48C11.6301 22.13 10.8301 21.62 10.1501 20.97C9.46006 20.32 8.93006 19.55 8.56006 18.7C8.19006 17.84 8.00006 16.93 8.00006 16C8.00006 15.45 8.45006 15 9.00006 15C9.55006 15 10.0001 15.45 10.0001 16C10.0001 16.65 10.1301 17.29 10.3901 17.9C10.6501 18.51 11.0401 19.06 11.5301 19.52C12.0201 19.99 12.6001 20.36 13.2501 20.61C13.9001 20.86 14.5801 20.99 15.2901 20.99H16.7001C17.4101 20.97 18.1001 20.86 18.7501 20.61C19.4001 20.35 19.9801 19.99 20.4701 19.52C20.9601 19.05 21.3401 18.51 21.6101 17.9C21.8701 17.3 22.0101 16.66 22.0001 16C22.0001 15.45 22.4501 15 23.0001 15C23.5501 15 24.0001 15.45 24.0001 16C24.0001 16.93 23.8101 17.84 23.4401 18.7C23.0701 19.56 22.5301 20.32 21.8501 20.97C21.1701 21.62 20.3701 22.13 19.4801 22.48C18.6001 22.83 17.6701 23 16.7101 23Z" fill="#E2E2E2"/>
<path d="M16.0001 26C15.4501 26 15.0001 25.55 15.0001 25V22C15.0001 21.45 15.4501 21 16.0001 21C16.5501 21 17.0001 21.45 17.0001 22V25C17.0001 25.55 16.5501 26 16.0001 26Z" fill="#E2E2E2"/>
</svg>
