<svg width="32" height="32" viewBox="0 0 32 32" fill="none" xmlns="http://www.w3.org/2000/svg">
<path fill-rule="evenodd" clip-rule="evenodd" d="M18.6656 7.00525C19.1311 6.97091 19.5756 7.1067 19.9441 7.3623C20.3079 7.61465 20.5784 7.96854 20.7528 8.35685C20.9257 8.74197 21.0073 9.16649 20.9995 9.58696V22.4214L20.9993 22.4382C20.9837 23.3677 20.5449 24.1952 19.8472 24.6512C19.1158 25.1291 18.122 25.1586 17.3472 24.4689L17.3338 24.4567L12.7338 20.2102H11.2499C10.5319 20.2102 9.95039 19.8251 9.58043 19.3499C9.20917 18.873 9 18.2526 9 17.6046V14.3935C9 13.7455 9.20917 13.1251 9.58043 12.6482C9.95039 12.173 10.5319 11.7879 11.2499 11.7879H12.7403L17.4566 7.53194C17.785 7.23724 18.202 7.03946 18.6656 7.00525ZM18.8076 9.00806C18.8034 9.01109 18.7986 9.01494 18.7932 9.01978C18.793 9.01997 18.7934 9.01959 18.7932 9.01978L13.7948 13.5303C13.611 13.6961 13.3723 13.7879 13.1248 13.7879H11.258C11.2452 13.7926 11.2093 13.8117 11.1586 13.8768C11.0752 13.9839 11 14.1664 11 14.3935V17.6046C11 17.8317 11.0752 18.0142 11.1586 18.1213C11.2093 18.1864 11.2452 18.2055 11.258 18.2102H13.1248C13.3762 18.2102 13.6184 18.3049 13.8032 18.4755L18.6815 22.979C18.6941 22.9897 18.7031 22.9957 18.7088 22.9988C18.7166 22.9967 18.7315 22.9911 18.7531 22.977C18.8416 22.9191 18.9919 22.7397 18.9995 22.4117V9.57668L18.9997 9.55384C19.003 9.41085 18.9745 9.27899 18.9282 9.17608C18.8837 9.07695 18.8338 9.02741 18.8076 9.00806ZM18.7024 23.0001C18.7017 23.0001 18.7023 23.0001 18.7024 23.0001V23.0001Z" fill="#E2E2E2"/>
</svg>
