<svg width="32" height="32" viewBox="0 0 32 32" fill="none" xmlns="http://www.w3.org/2000/svg">
<path d="M16 20C14.92 20 13.87 19.5 13.12 18.61C12.4 17.76 12 16.65 12 15.47V10.53C12 9.35 12.4 8.23 13.12 7.39C13.87 6.51 14.92 6 16 6C17.08 6 18.13 6.51 18.88 7.39C19.6 8.24 20 9.35 20 10.53V15.47C20 16.65 19.6 17.77 18.88 18.61C18.13 19.49 17.08 20 16 20ZM16 8C15.5 8 15.01 8.24 14.64 8.68C14.23 9.16 14 9.83 14 10.53V15.47C14 16.17 14.23 16.84 14.64 17.32C15.39 18.2 16.61 18.2 17.36 17.32C17.77 16.84 18 16.17 18 15.47V10.53C18 9.83 17.77 9.16 17.36 8.68C16.99 8.24 16.5 8 16 8Z" fill="#E2E2E2"/>
<path d="M15.28 23C14.33 23 13.4 22.82 12.52 22.48C11.63 22.13 10.83 21.62 10.15 20.97C9.46 20.32 8.93 19.55 8.56 18.7C8.19 17.84 8 16.93 8 16C8 15.45 8.45 15 9 15C9.55 15 10 15.45 10 16C10 16.66 10.13 17.29 10.39 17.9C10.65 18.51 11.04 19.05 11.53 19.52C12.02 19.99 12.6 20.36 13.25 20.61C13.9 20.86 14.58 20.99 15.28 20.99H16.7C17.4 20.97 18.1 20.86 18.75 20.61C19.4 20.36 19.98 19.99 20.47 19.52C20.96 19.05 21.34 18.51 21.61 17.9C21.87 17.29 22.01 16.65 22 16C22 15.45 22.45 15 23 15C23.55 15 24 15.45 24 16C24 16.93 23.81 17.84 23.44 18.7C23.07 19.56 22.53 20.32 21.85 20.97C21.17 21.62 20.37 22.13 19.48 22.48C18.6 22.83 17.67 23 16.72 23H15.28Z" fill="#E2E2E2"/>
<path d="M16 26C15.45 26 15 25.55 15 25V22C15 21.45 15.45 21 16 21C16.55 21 17 21.45 17 22V25C17 25.55 16.55 26 16 26Z" fill="#E2E2E2"/>
</svg>
